<svg width="90" height="90" viewBox="0 0 90 90" fill="none" xmlns="http://www.w3.org/2000/svg">
<path d="M19.9599 13.2351C8.95442 13.2351 0.00195312 22.1876 0.00195312 33.1932C0.00195312 43.8101 8.3337 52.518 18.8022 53.1196C18.9835 55.0765 18.8475 60.4035 13.743 67.8138C13.3571 68.3728 13.4271 69.1266 13.9064 69.6059C15.9952 71.6947 17.2862 73.0103 18.1897 73.9304C19.3722 75.1334 19.9119 75.6827 20.7015 76.3996C20.9693 76.6426 21.3071 76.7648 21.6464 76.7648C21.9759 76.7648 22.3041 76.6495 22.5692 76.4202C31.464 68.6803 41.3449 52.6883 39.9153 33.0915C39.0776 21.5861 30.6853 13.2351 19.9599 13.2351ZM21.66 73.4374C21.277 73.0598 20.8402 72.6148 20.1961 71.9597C19.4134 71.1619 18.3395 70.0687 16.7107 68.4345C22.9057 58.8887 21.7355 52.0896 21.2234 51.1146C20.9802 50.6518 20.4817 50.34 19.9599 50.34C10.5062 50.34 2.81445 42.6482 2.81445 33.1932C2.81445 23.7394 10.5062 16.0476 19.9599 16.0476C29.1693 16.0476 36.3818 23.3013 37.1109 33.2947C38.7177 55.3361 25.6179 69.6471 21.66 73.4374Z" fill="#445964"/>
<path d="M89.8604 33.0915V33.0901C89.0199 21.5861 80.6264 13.2351 69.9038 13.2351C58.8982 13.2351 49.9443 22.1876 49.9443 33.1932C49.9443 43.8101 58.2775 52.518 68.7474 53.1196C68.9287 55.0751 68.7913 60.3993 63.6855 67.8138C63.2996 68.3728 63.3697 69.1266 63.8489 69.6059C65.9295 71.6864 67.2176 72.9993 68.1212 73.918C69.3091 75.1292 69.8516 75.6813 70.6453 76.4009C70.9131 76.6426 71.2522 76.7648 71.5902 76.7648C71.9198 76.7648 72.248 76.6495 72.513 76.4188C81.4078 68.6789 91.2886 52.687 89.8604 33.0915ZM71.6038 73.4374C71.2179 73.057 70.7772 72.6094 70.1275 71.9474C69.3448 71.1508 68.2751 70.0605 66.6531 68.4345C72.8481 58.8873 71.6795 52.0896 71.1686 51.1146C70.9254 50.6532 70.4257 50.34 69.9038 50.34C60.4486 50.34 52.7568 42.6482 52.7568 33.1932C52.7568 23.7394 60.4486 16.0476 69.9038 16.0476C79.1116 16.0476 86.3256 23.3013 87.0561 33.2961V33.2947C88.6615 55.3333 75.5617 69.6471 71.6038 73.4374Z" fill="#445964"/>
</svg>
